<?xml version="1.0" encoding="UTF-8" standalone="no"?>
<svg
   width="432pt"
   height="288pt"
   viewBox="0 0 432 288"
   version="1.1"
   id="svg34"
   sodipodi:docname="histogram.svg"
   inkscape:export-filename="histogram.png"
   inkscape:export-xdpi="400"
   inkscape:export-ydpi="400"
   inkscape:version="1.4.3 (0d15f75042, 2025-12-25)"
   xmlns:inkscape="http://www.inkscape.org/namespaces/inkscape"
   xmlns:sodipodi="http://sodipodi.sourceforge.net/DTD/sodipodi-0.dtd"
   xmlns:xlink="http://www.w3.org/1999/xlink"
   xmlns="http://www.w3.org/2000/svg"
   xmlns:svg="http://www.w3.org/2000/svg"
   xmlns:rdf="http://www.w3.org/1999/02/22-rdf-syntax-ns#"
   xmlns:cc="http://creativecommons.org/ns#"
   xmlns:dc="http://purl.org/dc/elements/1.1/">
  <sodipodi:namedview
     id="namedview34"
     pagecolor="#ffffff"
     bordercolor="#000000"
     borderopacity="0.25"
     inkscape:showpageshadow="2"
     inkscape:pageopacity="0.0"
     inkscape:pagecheckerboard="0"
     inkscape:deskcolor="#d1d1d1"
     inkscape:document-units="pt"
     inkscape:zoom="1.7484903"
     inkscape:cx="282.52944"
     inkscape:cy="193.88154"
     inkscape:window-width="1878"
     inkscape:window-height="1011"
     inkscape:window-x="0"
     inkscape:window-y="0"
     inkscape:window-maximized="1"
     inkscape:current-layer="matplotlib.axis_4"
     inkscape:antialias-rendering="true" />
  <metadata
     id="metadata1">
    <rdf:RDF>
      <cc:Work>
        <dc:type
           rdf:resource="http://purl.org/dc/dcmitype/StillImage" />
        <dc:date>2026-03-20T14:06:30.187775</dc:date>
        <dc:format>image/svg+xml</dc:format>
        <dc:creator>
          <cc:Agent>
            <dc:title>Matplotlib v3.10.8, https://matplotlib.org/</dc:title>
          </cc:Agent>
        </dc:creator>
      </cc:Work>
    </rdf:RDF>
  </metadata>
  <defs
     id="defs1">
    <style
       type="text/css"
       id="style1">*{stroke-linejoin: round; stroke-linecap: butt}</style>
  </defs>
  <g
     id="figure_1">
    <g
       id="patch_1">
      <path
         d="M 0 288  L 432 288  L 432 0  L 0 0  z "
         style="fill: #ffffff"
         id="path1" />
    </g>
    <g
       id="axes_1">
      <g
         id="patch_2">
        <path
           d="M 54 99.783529  L 388.8 99.783529  L 388.8 34.56  L 54 34.56  z "
           style="fill: #ffffff"
           id="path2" />
      </g>
      <g
         id="FillBetweenPolyCollection_1">
        <defs
           id="defs2">
          <path
             id="mb2d94e0bc7"
             d="M 63.475472 -166.743421  L 63.475472 -166.743421  L 66.629612 -166.743421  L 66.629612 -166.743421  L 69.783752 -166.743421  L 69.783752 -166.743421  L 72.937892 -166.743421  L 72.937892 -166.743421  L 76.092032 -166.743421  L 76.092032 -166.743421  L 79.246172 -166.743421  L 79.246172 -166.743421  L 82.400312 -166.743421  L 82.400312 -166.743421  L 85.554452 -166.743421  L 85.554452 -166.743421  L 88.708592 -166.743421  L 88.708592 -166.743421  L 91.862732 -166.743421  L 91.862732 -166.743421  L 95.016872 -166.743421  L 95.016872 -166.743421  L 98.171012 -166.743421  L 98.171012 -166.743421  L 101.325152 -166.743421  L 101.325152 -166.743421  L 104.479292 -166.743421  L 104.479292 -166.743421  L 107.633432 -166.743421  L 107.633432 -166.743421  L 110.787572 -166.743421  L 110.787572 -166.743421  L 113.941712 -166.743421  L 113.941712 -166.743421  L 117.095852 -166.743421  L 117.095852 -166.743421  L 120.249992 -166.743421  L 120.249992 -166.743421  L 123.404132 -166.743421  L 123.404132 -166.743421  L 126.558272 -166.743421  L 126.558272 -166.743421  L 129.712412 -166.743421  L 129.712412 -166.743421  L 132.866552 -166.743421  L 132.866552 -166.743421  L 136.020692 -166.743421  L 136.020692 -166.743421  L 139.174832 -166.743421  L 139.174832 -166.743421  L 142.328972 -166.743421  L 142.328972 -166.743421  L 145.483112 -166.743421  L 145.483112 -166.743421  L 148.637252 -166.743421  L 148.637252 -166.743421  L 151.791392 -166.743421  L 151.791392 -166.743421  L 154.945533 -166.743421  L 154.945533 -166.743421  L 158.099673 -166.743421  L 158.099673 -166.743421  L 161.253813 -166.743421  L 161.253813 -166.743421  L 164.407953 -166.743421  L 164.407953 -166.743421  L 167.562093 -166.743421  L 167.562093 -166.743421  L 170.716233 -166.743421  L 170.716233 -166.743421  L 173.870373 -166.743421  L 173.870373 -166.743421  L 177.024513 -166.743421  L 177.024513 -166.743421  L 180.178653 -166.743421  L 180.178653 -166.743421  L 183.332793 -166.743421  L 183.332793 -166.743421  L 186.486933 -166.743421  L 186.486933 -166.743421  L 189.641073 -166.743421  L 189.641073 -166.743421  L 192.795213 -166.743421  L 192.795213 -166.743421  L 195.949353 -166.743421  L 195.949353 -166.743421  L 199.103493 -166.743421  L 199.103493 -166.743421  L 202.257633 -166.743421  L 202.257633 -166.743421  L 205.411773 -166.743421  L 205.411773 -166.743421  L 208.565913 -166.743421  L 208.565913 -166.743421  L 211.720053 -166.743421  L 211.720053 -166.743421  L 214.874193 -166.743421  L 214.874193 -166.743421  L 218.028333 -166.743421  L 218.028333 -166.743421  L 221.182473 -166.743421  L 221.182473 -166.743421  L 224.336613 -166.743421  L 224.336613 -166.743421  L 227.490753 -166.743421  L 227.490753 -166.743421  L 230.644893 -166.743421  L 230.644893 -166.743421  L 233.799033 -166.743421  L 233.799033 -166.743421  L 236.953173 -166.743421  L 236.953173 -166.743421  L 240.107313 -166.743421  L 240.107313 -166.743421  L 243.261453 -166.743421  L 243.261453 -166.743421  L 246.415593 -166.743421  L 246.415593 -166.743421  L 249.569733 -166.743421  L 249.569733 -166.743421  L 252.723873 -166.743421  L 252.723873 -166.743421  L 255.878013 -166.743421  L 255.878013 -166.743421  L 259.032153 -166.743421  L 259.032153 -166.743421  L 262.186293 -166.743421  L 262.186293 -166.743421  L 265.340433 -166.743421  L 265.340433 -166.743421  L 268.494574 -166.743421  L 268.494574 -166.743421  L 271.648714 -166.743421  L 271.648714 -166.743421  L 274.802854 -166.743421  L 274.802854 -166.743421  L 277.956994 -166.743421  L 277.956994 -166.743421  L 281.111134 -166.743421  L 281.111134 -166.743421  L 284.265274 -166.743421  L 284.265274 -166.743421  L 287.419414 -166.743421  L 287.419414 -166.743421  L 290.573554 -166.743421  L 290.573554 -166.743421  L 293.727694 -166.743421  L 293.727694 -166.743421  L 296.881834 -166.743421  L 296.881834 -166.743421  L 300.035974 -166.743421  L 300.035974 -166.743421  L 303.190114 -166.743421  L 303.190114 -166.743421  L 306.344254 -166.743421  L 306.344254 -166.743421  L 309.498394 -166.743421  L 309.498394 -166.743421  L 312.652534 -166.743421  L 312.652534 -166.743421  L 315.806674 -166.743421  L 315.806674 -166.743421  L 318.960814 -166.743421  L 318.960814 -166.743421  L 322.114954 -166.743421  L 322.114954 -166.743421  L 325.269094 -166.743421  L 325.269094 -166.743421  L 328.423234 -166.743421  L 328.423234 -166.743421  L 331.577374 -166.743421  L 331.577374 -166.743421  L 334.731514 -166.743421  L 334.731514 -166.743421  L 337.885654 -166.743421  L 337.885654 -166.743421  L 341.039794 -166.743421  L 341.039794 -166.743421  L 341.039794 -166.747716  L 341.039794 -166.747716  L 341.039794 -166.747716  L 337.885654 -166.747716  L 337.885654 -166.75201  L 334.731514 -166.75201  L 334.731514 -166.743421  L 331.577374 -166.743421  L 331.577374 -166.747716  L 328.423234 -166.747716  L 328.423234 -166.747716  L 325.269094 -166.747716  L 325.269094 -166.743421  L 322.114954 -166.743421  L 322.114954 -166.75201  L 318.960814 -166.75201  L 318.960814 -166.773483  L 315.806674 -166.773483  L 315.806674 -166.756305  L 312.652534 -166.756305  L 312.652534 -166.760599  L 309.498394 -166.760599  L 309.498394 -166.756305  L 306.344254 -166.756305  L 306.344254 -166.756305  L 303.190114 -166.756305  L 303.190114 -166.786367  L 300.035974 -166.786367  L 300.035974 -166.794956  L 296.881834 -166.794956  L 296.881834 -166.80784  L 293.727694 -166.80784  L 293.727694 -166.816429  L 290.573554 -166.816429  L 290.573554 -166.893732  L 287.419414 -166.893732  L 287.419414 -166.928089  L 284.265274 -166.928089  L 284.265274 -166.880848  L 281.111134 -166.880848  L 281.111134 -166.996803  L 277.956994 -166.996803  L 277.956994 -166.992508  L 274.802854 -166.992508  L 274.802854 -167.082695  L 271.648714 -167.082695  L 271.648714 -167.258774  L 268.494574 -167.258774  L 268.494574 -167.271658  L 265.340433 -167.271658  L 265.340433 -167.275953  L 262.186293 -167.275953  L 262.186293 -167.512156  L 259.032153 -167.512156  L 259.032153 -167.761243  L 255.878013 -167.761243  L 255.878013 -167.997447  L 252.723873 -167.997447  L 252.723873 -167.834252  L 249.569733 -167.834252  L 249.569733 -168.388257  L 246.415593 -168.388257  L 246.415593 -168.804834  L 243.261453 -168.804834  L 243.261453 -168.95944  L 240.107313 -168.95944  L 240.107313 -169.710996  L 236.953173 -169.710996  L 236.953173 -169.801183  L 233.799033 -169.801183  L 233.799033 -170.806122  L 230.644893 -170.806122  L 230.644893 -171.111039  L 227.490753 -171.111039  L 227.490753 -171.32577  L 224.336613 -171.32577  L 224.336613 -174.971894  L 221.182473 -174.971894  L 221.182473 -171.510438  L 218.028333 -171.510438  L 218.028333 -174.168802  L 214.874193 -174.168802  L 214.874193 -175.242454  L 211.720053 -175.242454  L 211.720053 -176.977476  L 208.565913 -176.977476  L 208.565913 -177.81922  L 205.411773 -177.81922  L 205.411773 -179.146254  L 202.257633 -179.146254  L 202.257633 -179.85916  L 199.103493 -179.85916  L 199.103493 -181.357979  L 195.949353 -181.357979  L 195.949353 -184.020637  L 192.795213 -184.020637  L 192.795213 -186.348315  L 189.641073 -186.348315  L 189.641073 -184.621882  L 186.486933 -184.621882  L 186.486933 -186.597403  L 183.332793 -186.597403  L 183.332793 -186.807839  L 180.178653 -186.807839  L 180.178653 -186.275307  L 177.024513 -186.275307  L 177.024513 -186.335431  L 173.870373 -186.335431  L 173.870373 -183.513873  L 170.716233 -183.513873  L 170.716233 -183.273375  L 167.562093 -183.273375  L 167.562093 -180.447521  L 164.407953 -180.447521  L 164.407953 -178.441938  L 161.253813 -178.441938  L 161.253813 -175.770691  L 158.099673 -175.770691  L 158.099673 -173.284112  L 154.945533 -173.284112  L 154.945533 -171.716579  L 151.791392 -171.716579  L 151.791392 -170.174814  L 148.637252 -170.174814  L 148.637252 -168.766182  L 145.483112 -168.766182  L 145.483112 -168.096223  L 142.328972 -168.096223  L 142.328972 -167.314604  L 139.174832 -167.314604  L 139.174832 -167.052633  L 136.020692 -167.052633  L 136.020692 -166.833608  L 132.866552 -166.833608  L 132.866552 -166.782072  L 129.712412 -166.782072  L 129.712412 -166.756305  L 126.558272 -166.756305  L 126.558272 -166.743421  L 123.404132 -166.743421  L 123.404132 -166.743421  L 120.249992 -166.743421  L 120.249992 -166.743421  L 117.095852 -166.743421  L 117.095852 -166.743421  L 113.941712 -166.743421  L 113.941712 -166.743421  L 110.787572 -166.743421  L 110.787572 -166.743421  L 107.633432 -166.743421  L 107.633432 -166.743421  L 104.479292 -166.743421  L 104.479292 -166.743421  L 101.325152 -166.743421  L 101.325152 -166.743421  L 98.171012 -166.743421  L 98.171012 -166.743421  L 95.016872 -166.743421  L 95.016872 -166.743421  L 91.862732 -166.743421  L 91.862732 -166.743421  L 88.708592 -166.743421  L 88.708592 -166.743421  L 85.554452 -166.743421  L 85.554452 -166.743421  L 82.400312 -166.743421  L 82.400312 -166.743421  L 79.246172 -166.743421  L 79.246172 -166.743421  L 76.092032 -166.743421  L 76.092032 -166.743421  L 72.937892 -166.743421  L 72.937892 -166.743421  L 69.783752 -166.743421  L 69.783752 -166.743421  L 66.629612 -166.743421  L 66.629612 -166.743421  L 63.475472 -166.743421  z "
             style="stroke: #2ca02c; stroke-width: 0.8" />
        </defs>
        <g
           clip-path="url(#p2bcf34e722)"
           id="g2">
          <use
             xlink:href="#mb2d94e0bc7"
             x="0"
             y="288"
             style="fill: #2ca02c; fill-opacity: 0.25; stroke: #2ca02c; stroke-width: 0.8"
             id="use2" />
        </g>
      </g>
      <g
         id="FillBetweenPolyCollection_2">
        <defs
           id="defs3">
          <path
             id="m4a76a00ad5"
             d="M 63.475472 -249.311591  L 63.475472 -166.743421  L 66.629612 -166.743421  L 66.629612 -166.743421  L 69.783752 -166.743421  L 69.783752 -166.743421  L 72.937892 -166.743421  L 72.937892 -166.743421  L 76.092032 -166.743421  L 76.092032 -166.743421  L 79.246172 -166.743421  L 79.246172 -166.743421  L 82.400312 -166.743421  L 82.400312 -166.743421  L 85.554452 -166.743421  L 85.554452 -166.743421  L 88.708592 -166.743421  L 88.708592 -166.743421  L 91.862732 -166.743421  L 91.862732 -166.743421  L 95.016872 -166.743421  L 95.016872 -166.743421  L 98.171012 -166.743421  L 98.171012 -166.743421  L 101.325152 -166.743421  L 101.325152 -166.743421  L 104.479292 -166.743421  L 104.479292 -166.743421  L 107.633432 -166.743421  L 107.633432 -166.743421  L 110.787572 -166.743421  L 110.787572 -166.743421  L 113.941712 -166.743421  L 113.941712 -166.743421  L 117.095852 -166.743421  L 117.095852 -166.743421  L 120.249992 -166.743421  L 120.249992 -166.743421  L 123.404132 -166.743421  L 123.404132 -166.743421  L 126.558272 -166.743421  L 126.558272 -166.743421  L 129.712412 -166.743421  L 129.712412 -166.743421  L 132.866552 -166.743421  L 132.866552 -166.743421  L 136.020692 -166.743421  L 136.020692 -166.743421  L 139.174832 -166.743421  L 139.174832 -166.743421  L 142.328972 -166.743421  L 142.328972 -166.743421  L 145.483112 -166.743421  L 145.483112 -166.743421  L 148.637252 -166.743421  L 148.637252 -166.743421  L 151.791392 -166.743421  L 151.791392 -166.743421  L 154.945533 -166.743421  L 154.945533 -166.743421  L 158.099673 -166.743421  L 158.099673 -166.743421  L 161.253813 -166.743421  L 161.253813 -166.743421  L 164.407953 -166.743421  L 164.407953 -166.743421  L 167.562093 -166.743421  L 167.562093 -166.743421  L 170.716233 -166.743421  L 170.716233 -166.743421  L 173.870373 -166.743421  L 173.870373 -166.743421  L 177.024513 -166.743421  L 177.024513 -166.743421  L 180.178653 -166.743421  L 180.178653 -166.743421  L 183.332793 -166.743421  L 183.332793 -166.743421  L 186.486933 -166.743421  L 186.486933 -166.743421  L 189.641073 -166.743421  L 189.641073 -166.743421  L 192.795213 -166.743421  L 192.795213 -166.743421  L 195.949353 -166.743421  L 195.949353 -166.743421  L 199.103493 -166.743421  L 199.103493 -166.743421  L 202.257633 -166.743421  L 202.257633 -166.743421  L 205.411773 -166.743421  L 205.411773 -166.743421  L 208.565913 -166.743421  L 208.565913 -166.743421  L 211.720053 -166.743421  L 211.720053 -166.743421  L 214.874193 -166.743421  L 214.874193 -166.743421  L 218.028333 -166.743421  L 218.028333 -166.743421  L 221.182473 -166.743421  L 221.182473 -166.743421  L 224.336613 -166.743421  L 224.336613 -166.743421  L 227.490753 -166.743421  L 227.490753 -166.743421  L 230.644893 -166.743421  L 230.644893 -166.743421  L 233.799033 -166.743421  L 233.799033 -166.743421  L 236.953173 -166.743421  L 236.953173 -166.743421  L 240.107313 -166.743421  L 240.107313 -166.743421  L 243.261453 -166.743421  L 243.261453 -166.743421  L 246.415593 -166.743421  L 246.415593 -166.743421  L 249.569733 -166.743421  L 249.569733 -166.743421  L 252.723873 -166.743421  L 252.723873 -166.743421  L 255.878013 -166.743421  L 255.878013 -166.743421  L 259.032153 -166.743421  L 259.032153 -166.743421  L 262.186293 -166.743421  L 262.186293 -166.743421  L 265.340433 -166.743421  L 265.340433 -166.743421  L 268.494574 -166.743421  L 268.494574 -166.743421  L 271.648714 -166.743421  L 271.648714 -166.743421  L 274.802854 -166.743421  L 274.802854 -166.743421  L 277.956994 -166.743421  L 277.956994 -166.743421  L 281.111134 -166.743421  L 281.111134 -166.743421  L 284.265274 -166.743421  L 284.265274 -166.743421  L 287.419414 -166.743421  L 287.419414 -166.743421  L 290.573554 -166.743421  L 290.573554 -166.743421  L 293.727694 -166.743421  L 293.727694 -166.743421  L 296.881834 -166.743421  L 296.881834 -166.743421  L 300.035974 -166.743421  L 300.035974 -166.743421  L 303.190114 -166.743421  L 303.190114 -166.743421  L 306.344254 -166.743421  L 306.344254 -166.743421  L 309.498394 -166.743421  L 309.498394 -166.743421  L 312.652534 -166.743421  L 312.652534 -166.743421  L 315.806674 -166.743421  L 315.806674 -166.743421  L 318.960814 -166.743421  L 318.960814 -166.743421  L 322.114954 -166.743421  L 322.114954 -166.743421  L 325.269094 -166.743421  L 325.269094 -166.743421  L 328.423234 -166.743421  L 328.423234 -166.743421  L 331.577374 -166.743421  L 331.577374 -166.743421  L 334.731514 -166.743421  L 334.731514 -166.743421  L 337.885654 -166.743421  L 337.885654 -166.743421  L 341.039794 -166.743421  L 341.039794 -166.743421  L 341.039794 -166.743421  L 341.039794 -166.743421  L 341.039794 -166.743421  L 337.885654 -166.743421  L 337.885654 -166.743421  L 334.731514 -166.743421  L 334.731514 -166.743421  L 331.577374 -166.743421  L 331.577374 -166.743421  L 328.423234 -166.743421  L 328.423234 -166.743421  L 325.269094 -166.743421  L 325.269094 -166.743421  L 322.114954 -166.743421  L 322.114954 -166.743421  L 318.960814 -166.743421  L 318.960814 -166.743421  L 315.806674 -166.743421  L 315.806674 -166.743421  L 312.652534 -166.743421  L 312.652534 -166.743421  L 309.498394 -166.743421  L 309.498394 -166.743421  L 306.344254 -166.743421  L 306.344254 -166.743421  L 303.190114 -166.743421  L 303.190114 -166.743421  L 300.035974 -166.743421  L 300.035974 -166.743421  L 296.881834 -166.743421  L 296.881834 -166.743421  L 293.727694 -166.743421  L 293.727694 -166.743421  L 290.573554 -166.743421  L 290.573554 -166.743421  L 287.419414 -166.743421  L 287.419414 -166.75201  L 284.265274 -166.75201  L 284.265274 -166.747716  L 281.111134 -166.747716  L 281.111134 -166.756305  L 277.956994 -166.756305  L 277.956994 -166.777778  L 274.802854 -166.777778  L 274.802854 -166.790662  L 271.648714 -166.790662  L 271.648714 -166.803545  L 268.494574 -166.803545  L 268.494574 -166.80784  L 265.340433 -166.80784  L 265.340433 -166.898027  L 262.186293 -166.898027  L 262.186293 -166.949562  L 259.032153 -166.949562  L 259.032153 -166.992508  L 255.878013 -166.992508  L 255.878013 -167.091284  L 252.723873 -167.091284  L 252.723873 -167.035454  L 249.569733 -167.035454  L 249.569733 -167.172882  L 246.415593 -167.172882  L 246.415593 -167.211533  L 243.261453 -167.211533  L 243.261453 -167.288836  L 240.107313 -167.288836  L 240.107313 -167.671057  L 236.953173 -167.671057  L 236.953173 -167.709708  L 233.799033 -167.709708  L 233.799033 -167.761243  L 230.644893 -167.761243  L 230.644893 -167.868609  L 227.490753 -167.868609  L 227.490753 -167.96309  L 224.336613 -167.96309  L 224.336613 -168.942261  L 221.182473 -168.942261  L 221.182473 -168.07475  L 218.028333 -168.07475  L 218.028333 -168.783361  L 214.874193 -168.783361  L 214.874193 -168.830601  L 211.720053 -168.830601  L 211.720053 -169.324481  L 208.565913 -169.324481  L 208.565913 -169.208527  L 205.411773 -169.208527  L 205.411773 -169.380311  L 202.257633 -169.380311  L 202.257633 -169.801183  L 199.103493 -169.801183  L 199.103493 -169.831245  L 195.949353 -169.831245  L 195.949353 -170.265001  L 192.795213 -170.265001  L 192.795213 -170.492615  L 189.641073 -170.492615  L 189.641073 -170.05886  L 186.486933 -170.05886  L 186.486933 -170.484026  L 183.332793 -170.484026  L 183.332793 -170.711641  L 180.178653 -170.711641  L 180.178653 -171.175458  L 177.024513 -171.175458  L 177.024513 -171.257056  L 173.870373 -171.257056  L 173.870373 -171.15828  L 170.716233 -171.15828  L 170.716233 -171.87548  L 167.562093 -171.87548  L 167.562093 -172.48102  L 164.407953 -172.48102  L 164.407953 -172.949132  L 161.253813 -172.949132  L 161.253813 -172.923365  L 158.099673 -172.923365  L 158.099673 -173.056498  L 154.945533 -173.056498  L 154.945533 -173.069381  L 151.791392 -173.069381  L 151.791392 -173.868179  L 148.637252 -173.868179  L 148.637252 -174.323407  L 145.483112 -174.323407  L 145.483112 -175.50872  L 142.328972 -175.50872  L 142.328972 -173.438718  L 139.174832 -173.438718  L 139.174832 -175.371292  L 136.020692 -175.371292  L 136.020692 -175.1265  L 132.866552 -175.1265  L 132.866552 -175.624674  L 129.712412 -175.624674  L 129.712412 -176.706916  L 126.558272 -176.706916  L 126.558272 -174.572495  L 123.404132 -174.572495  L 123.404132 -175.590317  L 120.249992 -175.590317  L 120.249992 -175.478658  L 117.095852 -175.478658  L 117.095852 -174.834466  L 113.941712 -174.834466  L 113.941712 -174.722806  L 110.787572 -174.722806  L 110.787572 -174.207453  L 107.633432 -174.207453  L 107.633432 -174.009901  L 104.479292 -174.009901  L 104.479292 -173.292701  L 101.325152 -173.292701  L 101.325152 -172.223343  L 98.171012 -172.223343  L 98.171012 -171.055209  L 95.016872 -171.055209  L 95.016872 -170.522678  L 91.862732 -170.522678  L 91.862732 -170.033092  L 88.708592 -170.033092  L 88.708592 -169.436141  L 85.554452 -169.436141  L 85.554452 -169.294419  L 82.400312 -169.294419  L 82.400312 -169.28583  L 79.246172 -169.28583  L 79.246172 -169.852719  L 76.092032 -169.852719  L 76.092032 -170.758881  L 72.937892 -170.758881  L 72.937892 -169.972968  L 69.783752 -169.972968  L 69.783752 -166.743421  L 66.629612 -166.743421  L 66.629612 -249.311591  L 63.475472 -249.311591  z "
             style="stroke: #ff7f0e; stroke-width: 0.8" />
        </defs>
        <g
           clip-path="url(#p2bcf34e722)"
           id="g3">
          <use
             xlink:href="#m4a76a00ad5"
             x="0"
             y="288"
             style="fill: #ff7f0e; fill-opacity: 0.25; stroke: #ff7f0e; stroke-width: 0.8"
             id="use3" />
        </g>
      </g>
      <g
         id="FillBetweenPolyCollection_3">
        <defs
           id="defs4">
          <path
             id="m32bca53a00"
             d="M 63.475472 -175.513014  L 63.475472 -166.743421  L 66.629612 -166.743421  L 66.629612 -166.743421  L 69.783752 -166.743421  L 69.783752 -166.743421  L 72.937892 -166.743421  L 72.937892 -166.743421  L 76.092032 -166.743421  L 76.092032 -166.743421  L 79.246172 -166.743421  L 79.246172 -166.743421  L 82.400312 -166.743421  L 82.400312 -166.743421  L 85.554452 -166.743421  L 85.554452 -166.743421  L 88.708592 -166.743421  L 88.708592 -166.743421  L 91.862732 -166.743421  L 91.862732 -166.743421  L 95.016872 -166.743421  L 95.016872 -166.743421  L 98.171012 -166.743421  L 98.171012 -166.743421  L 101.325152 -166.743421  L 101.325152 -166.743421  L 104.479292 -166.743421  L 104.479292 -166.743421  L 107.633432 -166.743421  L 107.633432 -166.743421  L 110.787572 -166.743421  L 110.787572 -166.743421  L 113.941712 -166.743421  L 113.941712 -166.743421  L 117.095852 -166.743421  L 117.095852 -166.743421  L 120.249992 -166.743421  L 120.249992 -166.743421  L 123.404132 -166.743421  L 123.404132 -166.743421  L 126.558272 -166.743421  L 126.558272 -166.743421  L 129.712412 -166.743421  L 129.712412 -166.743421  L 132.866552 -166.743421  L 132.866552 -166.743421  L 136.020692 -166.743421  L 136.020692 -166.743421  L 139.174832 -166.743421  L 139.174832 -166.743421  L 142.328972 -166.743421  L 142.328972 -166.743421  L 145.483112 -166.743421  L 145.483112 -166.743421  L 148.637252 -166.743421  L 148.637252 -166.743421  L 151.791392 -166.743421  L 151.791392 -166.743421  L 154.945533 -166.743421  L 154.945533 -166.743421  L 158.099673 -166.743421  L 158.099673 -166.743421  L 161.253813 -166.743421  L 161.253813 -166.743421  L 164.407953 -166.743421  L 164.407953 -166.743421  L 167.562093 -166.743421  L 167.562093 -166.743421  L 170.716233 -166.743421  L 170.716233 -166.743421  L 173.870373 -166.743421  L 173.870373 -166.743421  L 177.024513 -166.743421  L 177.024513 -166.743421  L 180.178653 -166.743421  L 180.178653 -166.743421  L 183.332793 -166.743421  L 183.332793 -166.743421  L 186.486933 -166.743421  L 186.486933 -166.743421  L 189.641073 -166.743421  L 189.641073 -166.743421  L 192.795213 -166.743421  L 192.795213 -166.743421  L 195.949353 -166.743421  L 195.949353 -166.743421  L 199.103493 -166.743421  L 199.103493 -166.743421  L 202.257633 -166.743421  L 202.257633 -166.743421  L 205.411773 -166.743421  L 205.411773 -166.743421  L 208.565913 -166.743421  L 208.565913 -166.743421  L 211.720053 -166.743421  L 211.720053 -166.743421  L 214.874193 -166.743421  L 214.874193 -166.743421  L 218.028333 -166.743421  L 218.028333 -166.743421  L 221.182473 -166.743421  L 221.182473 -166.743421  L 224.336613 -166.743421  L 224.336613 -166.743421  L 227.490753 -166.743421  L 227.490753 -166.743421  L 230.644893 -166.743421  L 230.644893 -166.743421  L 233.799033 -166.743421  L 233.799033 -166.743421  L 236.953173 -166.743421  L 236.953173 -166.743421  L 240.107313 -166.743421  L 240.107313 -166.743421  L 243.261453 -166.743421  L 243.261453 -166.743421  L 246.415593 -166.743421  L 246.415593 -166.743421  L 249.569733 -166.743421  L 249.569733 -166.743421  L 252.723873 -166.743421  L 252.723873 -166.743421  L 255.878013 -166.743421  L 255.878013 -166.743421  L 259.032153 -166.743421  L 259.032153 -166.743421  L 262.186293 -166.743421  L 262.186293 -166.743421  L 265.340433 -166.743421  L 265.340433 -166.743421  L 268.494574 -166.743421  L 268.494574 -166.743421  L 271.648714 -166.743421  L 271.648714 -166.743421  L 274.802854 -166.743421  L 274.802854 -166.743421  L 277.956994 -166.743421  L 277.956994 -166.743421  L 281.111134 -166.743421  L 281.111134 -166.743421  L 284.265274 -166.743421  L 284.265274 -166.743421  L 287.419414 -166.743421  L 287.419414 -166.743421  L 290.573554 -166.743421  L 290.573554 -166.743421  L 293.727694 -166.743421  L 293.727694 -166.743421  L 296.881834 -166.743421  L 296.881834 -166.743421  L 300.035974 -166.743421  L 300.035974 -166.743421  L 303.190114 -166.743421  L 303.190114 -166.743421  L 306.344254 -166.743421  L 306.344254 -166.743421  L 309.498394 -166.743421  L 309.498394 -166.743421  L 312.652534 -166.743421  L 312.652534 -166.743421  L 315.806674 -166.743421  L 315.806674 -166.743421  L 318.960814 -166.743421  L 318.960814 -166.743421  L 322.114954 -166.743421  L 322.114954 -166.743421  L 325.269094 -166.743421  L 325.269094 -166.743421  L 328.423234 -166.743421  L 328.423234 -166.743421  L 331.577374 -166.743421  L 331.577374 -166.743421  L 334.731514 -166.743421  L 334.731514 -166.743421  L 337.885654 -166.743421  L 337.885654 -166.743421  L 341.039794 -166.743421  L 341.039794 -166.743421  L 341.039794 -166.743421  L 341.039794 -166.743421  L 341.039794 -166.743421  L 337.885654 -166.743421  L 337.885654 -166.743421  L 334.731514 -166.743421  L 334.731514 -166.743421  L 331.577374 -166.743421  L 331.577374 -166.743421  L 328.423234 -166.743421  L 328.423234 -166.743421  L 325.269094 -166.743421  L 325.269094 -166.743421  L 322.114954 -166.743421  L 322.114954 -166.743421  L 318.960814 -166.743421  L 318.960814 -166.743421  L 315.806674 -166.743421  L 315.806674 -166.743421  L 312.652534 -166.743421  L 312.652534 -166.743421  L 309.498394 -166.743421  L 309.498394 -166.743421  L 306.344254 -166.743421  L 306.344254 -166.764894  L 303.190114 -166.764894  L 303.190114 -166.786367  L 300.035974 -166.786367  L 300.035974 -166.794956  L 296.881834 -166.794956  L 296.881834 -166.876554  L 293.727694 -166.876554  L 293.727694 -167.009687  L 290.573554 -167.009687  L 290.573554 -167.151409  L 287.419414 -167.151409  L 287.419414 -167.482094  L 284.265274 -167.482094  L 284.265274 -167.838546  L 281.111134 -167.838546  L 281.111134 -168.349605  L 277.956994 -168.349605  L 277.956994 -169.049626  L 274.802854 -169.049626  L 274.802854 -169.255768  L 271.648714 -169.255768  L 271.648714 -170.101806  L 268.494574 -170.101806  L 268.494574 -170.840479  L 265.340433 -170.840479  L 265.340433 -171.153985  L 262.186293 -171.153985  L 262.186293 -171.420251  L 259.032153 -171.420251  L 259.032153 -171.866891  L 255.878013 -171.866891  L 255.878013 -172.523966  L 252.723873 -172.523966  L 252.723873 -172.154629  L 249.569733 -172.154629  L 249.569733 -172.785937  L 246.415593 -172.785937  L 246.415593 -172.854651  L 243.261453 -172.854651  L 243.261453 -173.120917  L 240.107313 -173.120917  L 240.107313 -173.387182  L 236.953173 -173.387182  L 236.953173 -173.202514  L 233.799033 -173.202514  L 233.799033 -174.065731  L 230.644893 -174.065731  L 230.644893 -173.79517  L 227.490753 -173.79517  L 227.490753 -174.155918  L 224.336613 -174.155918  L 224.336613 -176.144322  L 221.182473 -176.144322  L 221.182473 -172.889008  L 218.028333 -172.889008  L 218.028333 -174.843055  L 214.874193 -174.843055  L 214.874193 -174.563906  L 211.720053 -174.563906  L 211.720053 -175.113616  L 208.565913 -175.113616  L 208.565913 -174.84735  L 205.411773 -174.84735  L 205.411773 -174.714217  L 202.257633 -174.714217  L 202.257633 -175.010545  L 199.103493 -175.010545  L 199.103493 -174.538138  L 195.949353 -174.538138  L 195.949353 -175.34123  L 192.795213 -175.34123  L 192.795213 -175.233865  L 189.641073 -175.233865  L 189.641073 -174.207453  L 186.486933 -174.207453  L 186.486933 -174.478013  L 183.332793 -174.478013  L 183.332793 -175.049197  L 180.178653 -175.049197  L 180.178653 -174.692744  L 177.024513 -174.692744  L 177.024513 -174.237515  L 173.870373 -174.237515  L 173.870373 -174.267578  L 170.716233 -174.267578  L 170.716233 -174.250399  L 167.562093 -174.250399  L 167.562093 -174.082909  L 164.407953 -174.082909  L 164.407953 -174.280461  L 161.253813 -174.280461  L 161.253813 -173.902536  L 158.099673 -173.902536  L 158.099673 -172.828883  L 154.945533 -172.828883  L 154.945533 -172.463841  L 151.791392 -172.463841  L 151.791392 -172.528261  L 148.637252 -172.528261  L 148.637252 -172.472431  L 145.483112 -172.472431  L 145.483112 -172.390833  L 142.328972 -172.390833  L 142.328972 -170.574213  L 139.174832 -170.574213  L 139.174832 -171.231288  L 136.020692 -171.231288  L 136.020692 -171.153985  L 132.866552 -171.153985  L 132.866552 -170.660105  L 129.712412 -170.660105  L 129.712412 -170.930666  L 126.558272 -170.930666  L 126.558272 -170.393839  L 123.404132 -170.393839  L 123.404132 -170.05886  L 120.249992 -170.05886  L 120.249992 -169.629399  L 117.095852 -169.629399  L 117.095852 -169.67664  L 113.941712 -169.67664  L 113.941712 -169.380311  L 110.787572 -169.380311  L 110.787572 -168.358194  L 107.633432 -168.358194  L 107.633432 -168.418319  L 104.479292 -168.418319  L 104.479292 -168.126285  L 101.325152 -168.126285  L 101.325152 -167.555102  L 98.171012 -167.555102  L 98.171012 -167.473505  L 95.016872 -167.473505  L 95.016872 -167.374729  L 91.862732 -167.374729  L 91.862732 -167.250185  L 88.708592 -167.250185  L 88.708592 -166.971035  L 85.554452 -166.971035  L 85.554452 -167.108463  L 82.400312 -167.108463  L 82.400312 -167.172882  L 79.246172 -167.172882  L 79.246172 -166.769189  L 76.092032 -166.769189  L 76.092032 -167.035454  L 72.937892 -167.035454  L 72.937892 -167.091284  L 69.783752 -167.091284  L 69.783752 -166.743421  L 66.629612 -166.743421  L 66.629612 -175.513014  L 63.475472 -175.513014  z "
             style="stroke: #1f77b4; stroke-width: 0.8" />
        </defs>
        <g
           clip-path="url(#p2bcf34e722)"
           id="g4">
          <use
             xlink:href="#m32bca53a00"
             x="0"
             y="288"
             style="fill: #1f77b4; fill-opacity: 0.25; stroke: #1f77b4; stroke-width: 0.8"
             id="use4" />
        </g>
      </g>
      <g
         id="matplotlib.axis_1" />
      <g
         id="matplotlib.axis_2">
        <g
           id="ytick_1">
          <g
             id="line2d_1">
            <defs
               id="defs5">
              <path
                 id="m44ef3679c3"
                 d="M 0 0  L -4.8 0  "
                 style="stroke: #000000" />
            </defs>
            <g
               id="g5">
              <use
                 xlink:href="#m44ef3679c3"
                 x="54"
                 y="78.31048"
                 style="stroke: #000000"
                 id="use5" />
            </g>
          </g>
          <g
             id="text_1">
            <text
               style="font-size: 8.8px; font-family: 'DejaVu Sans', 'Bitstream Vera Sans', 'Computer Modern Sans Serif', 'Lucida Grande', 'Verdana', 'Geneva', 'Lucid', 'Arial', 'Helvetica', 'Avant Garde', sans-serif; text-anchor: end"
               x="45.7"
               y="81.653792"
               transform="rotate(-0 45.7 81.653792)"
               id="text5">10000</text>
          </g>
        </g>
        <g
           id="ytick_2">
          <g
             id="line2d_2">
            <g
               id="g6">
              <use
                 xlink:href="#m44ef3679c3"
                 x="54"
                 y="35.36438"
                 style="stroke: #000000"
                 id="use6" />
            </g>
          </g>
          <g
             id="text_2">
            <text
               style="font-size: 8.8px; font-family: 'DejaVu Sans', 'Bitstream Vera Sans', 'Computer Modern Sans Serif', 'Lucida Grande', 'Verdana', 'Geneva', 'Lucid', 'Arial', 'Helvetica', 'Avant Garde', sans-serif; text-anchor: end"
               x="45.7"
               y="38.707693"
               transform="rotate(-0 45.7 38.707693)"
               id="text6">20000</text>
          </g>
        </g>
      </g>
      <g
         id="line2d_3">
        <defs
           id="defs6">
          <path
             id="m798122efbc"
             d="M -6 3  L 6 -3  "
             style="stroke: #000000" />
        </defs>
        <g
           id="g8">
          <use
             xlink:href="#m798122efbc"
             x="54"
             y="99.783529"
             style="stroke: #000000"
             id="use7" />
          <use
             xlink:href="#m798122efbc"
             x="388.8"
             y="99.783529"
             style="stroke: #000000"
             id="use8" />
        </g>
      </g>
      <g
         id="patch_3">
        <path
           d="M 54 99.783529  L 54 34.56  "
           style="fill: none; stroke: #000000; stroke-linejoin: miter; stroke-linecap: square"
           id="path8" />
      </g>
      <g
         id="patch_4">
        <path
           d="M 388.8 99.783529  L 388.8 34.56  "
           style="fill: none; stroke: #000000; stroke-linejoin: miter; stroke-linecap: square"
           id="path9" />
      </g>
      <g
         id="patch_5">
        <path
           d="M 54 34.56  L 388.8 34.56  "
           style="fill: none; stroke: #000000; stroke-linejoin: miter; stroke-linecap: square"
           id="path10" />
      </g>
      <g
         id="legend_1">
        <g
           id="patch_6">
          <path
             d="M 316.723 94.04125  L 382.64 94.04125  Q 384.4 94.04125 384.4 92.28125  L 384.4 40.72  Q 384.4 38.96 382.64 38.96  L 316.723 38.96  Q 314.963 38.96 314.963 40.72  L 314.963 92.28125  Q 314.963 94.04125 316.723 94.04125  z "
             style="fill: #ffffff; opacity: 0.8; stroke: #cccccc; stroke-width: 0.8; stroke-linejoin: miter"
             id="path11" />
        </g>
        <g
           id="text_3">
          <text
             style="font-size: 9.6px; font-family: 'DejaVu Sans', 'Bitstream Vera Sans', 'Computer Modern Sans Serif', 'Lucida Grande', 'Verdana', 'Geneva', 'Lucid', 'Arial', 'Helvetica', 'Avant Garde', sans-serif; text-anchor: start"
             x="318.483"
             y="49.7745"
             transform="rotate(-0 318.483 49.7745)"
             id="text11">Residue type</text>
        </g>
        <g
           id="patch_7">
          <path
             d="M 324.64 62.857625  L 342.24 62.857625  L 342.24 56.697625  L 324.64 56.697625  z "
             style="fill: #1f77b4; fill-opacity: 0.25; stroke: #1f77b4; stroke-width: 0.8; stroke-linejoin: miter"
             id="path12" />
        </g>
        <g
           id="text_4">
          <text
             style="font-size: 8.8px; font-family: 'DejaVu Sans', 'Bitstream Vera Sans', 'Computer Modern Sans Serif', 'Lucida Grande', 'Verdana', 'Geneva', 'Lucid', 'Arial', 'Helvetica', 'Avant Garde', sans-serif; text-anchor: start"
             x="349.28"
             y="62.857625"
             transform="rotate(-0 349.28 62.857625)"
             id="text12">Sheet</text>
        </g>
        <g
           id="patch_8">
          <path
             d="M 324.64 75.774375  L 342.24 75.774375  L 342.24 69.614375  L 324.64 69.614375  z "
             style="fill: #ff7f0e; fill-opacity: 0.25; stroke: #ff7f0e; stroke-width: 0.8; stroke-linejoin: miter"
             id="path13" />
        </g>
        <g
           id="text_5">
          <text
             style="font-size: 8.8px; font-family: 'DejaVu Sans', 'Bitstream Vera Sans', 'Computer Modern Sans Serif', 'Lucida Grande', 'Verdana', 'Geneva', 'Lucid', 'Arial', 'Helvetica', 'Avant Garde', sans-serif; text-anchor: start"
             x="349.28"
             y="75.774375"
             transform="rotate(-0 349.28 75.774375)"
             id="text13">Helix</text>
        </g>
        <g
           id="patch_9">
          <path
             d="M 324.64 88.691125  L 342.24 88.691125  L 342.24 82.531125  L 324.64 82.531125  z "
             style="fill: #2ca02c; fill-opacity: 0.25; stroke: #2ca02c; stroke-width: 0.8; stroke-linejoin: miter"
             id="path14" />
        </g>
        <g
           id="text_6">
          <text
             style="font-size: 8.8px; font-family: 'DejaVu Sans', 'Bitstream Vera Sans', 'Computer Modern Sans Serif', 'Lucida Grande', 'Verdana', 'Geneva', 'Lucid', 'Arial', 'Helvetica', 'Avant Garde', sans-serif; text-anchor: start"
             x="349.28"
             y="88.691125"
             transform="rotate(-0 349.28 88.691125)"
             id="text14">Loop</text>
        </g>
      </g>
    </g>
    <g
       id="axes_2">
      <g
         id="patch_10">
        <path
           d="M 54 256.32  L 388.8 256.32  L 388.8 104.131765  L 54 104.131765  z "
           style="fill: #ffffff"
           id="path15" />
      </g>
      <g
         id="FillBetweenPolyCollection_4">
        <defs
           id="defs15">
          <path
             id="m1c0f499a9c"
             d="M 63.475472 -31.68  L 63.475472 -31.68  L 66.629612 -31.68  L 66.629612 -31.68  L 69.783752 -31.68  L 69.783752 -31.68  L 72.937892 -31.68  L 72.937892 -31.68  L 76.092032 -31.68  L 76.092032 -31.68  L 79.246172 -31.68  L 79.246172 -31.68  L 82.400312 -31.68  L 82.400312 -31.68  L 85.554452 -31.68  L 85.554452 -31.68  L 88.708592 -31.68  L 88.708592 -31.68  L 91.862732 -31.68  L 91.862732 -31.68  L 95.016872 -31.68  L 95.016872 -31.68  L 98.171012 -31.68  L 98.171012 -31.68  L 101.325152 -31.68  L 101.325152 -31.68  L 104.479292 -31.68  L 104.479292 -31.68  L 107.633432 -31.68  L 107.633432 -31.68  L 110.787572 -31.68  L 110.787572 -31.68  L 113.941712 -31.68  L 113.941712 -31.68  L 117.095852 -31.68  L 117.095852 -31.68  L 120.249992 -31.68  L 120.249992 -31.68  L 123.404132 -31.68  L 123.404132 -31.68  L 126.558272 -31.68  L 126.558272 -31.68  L 129.712412 -31.68  L 129.712412 -31.68  L 132.866552 -31.68  L 132.866552 -31.68  L 136.020692 -31.68  L 136.020692 -31.68  L 139.174832 -31.68  L 139.174832 -31.68  L 142.328972 -31.68  L 142.328972 -31.68  L 145.483112 -31.68  L 145.483112 -31.68  L 148.637252 -31.68  L 148.637252 -31.68  L 151.791392 -31.68  L 151.791392 -31.68  L 154.945533 -31.68  L 154.945533 -31.68  L 158.099673 -31.68  L 158.099673 -31.68  L 161.253813 -31.68  L 161.253813 -31.68  L 164.407953 -31.68  L 164.407953 -31.68  L 167.562093 -31.68  L 167.562093 -31.68  L 170.716233 -31.68  L 170.716233 -31.68  L 173.870373 -31.68  L 173.870373 -31.68  L 177.024513 -31.68  L 177.024513 -31.68  L 180.178653 -31.68  L 180.178653 -31.68  L 183.332793 -31.68  L 183.332793 -31.68  L 186.486933 -31.68  L 186.486933 -31.68  L 189.641073 -31.68  L 189.641073 -31.68  L 192.795213 -31.68  L 192.795213 -31.68  L 195.949353 -31.68  L 195.949353 -31.68  L 199.103493 -31.68  L 199.103493 -31.68  L 202.257633 -31.68  L 202.257633 -31.68  L 205.411773 -31.68  L 205.411773 -31.68  L 208.565913 -31.68  L 208.565913 -31.68  L 211.720053 -31.68  L 211.720053 -31.68  L 214.874193 -31.68  L 214.874193 -31.68  L 218.028333 -31.68  L 218.028333 -31.68  L 221.182473 -31.68  L 221.182473 -31.68  L 224.336613 -31.68  L 224.336613 -31.68  L 227.490753 -31.68  L 227.490753 -31.68  L 230.644893 -31.68  L 230.644893 -31.68  L 233.799033 -31.68  L 233.799033 -31.68  L 236.953173 -31.68  L 236.953173 -31.68  L 240.107313 -31.68  L 240.107313 -31.68  L 243.261453 -31.68  L 243.261453 -31.68  L 246.415593 -31.68  L 246.415593 -31.68  L 249.569733 -31.68  L 249.569733 -31.68  L 252.723873 -31.68  L 252.723873 -31.68  L 255.878013 -31.68  L 255.878013 -31.68  L 259.032153 -31.68  L 259.032153 -31.68  L 262.186293 -31.68  L 262.186293 -31.68  L 265.340433 -31.68  L 265.340433 -31.68  L 268.494574 -31.68  L 268.494574 -31.68  L 271.648714 -31.68  L 271.648714 -31.68  L 274.802854 -31.68  L 274.802854 -31.68  L 277.956994 -31.68  L 277.956994 -31.68  L 281.111134 -31.68  L 281.111134 -31.68  L 284.265274 -31.68  L 284.265274 -31.68  L 287.419414 -31.68  L 287.419414 -31.68  L 290.573554 -31.68  L 290.573554 -31.68  L 293.727694 -31.68  L 293.727694 -31.68  L 296.881834 -31.68  L 296.881834 -31.68  L 300.035974 -31.68  L 300.035974 -31.68  L 303.190114 -31.68  L 303.190114 -31.68  L 306.344254 -31.68  L 306.344254 -31.68  L 309.498394 -31.68  L 309.498394 -31.68  L 312.652534 -31.68  L 312.652534 -31.68  L 315.806674 -31.68  L 315.806674 -31.68  L 318.960814 -31.68  L 318.960814 -31.68  L 322.114954 -31.68  L 322.114954 -31.68  L 325.269094 -31.68  L 325.269094 -31.68  L 328.423234 -31.68  L 328.423234 -31.68  L 331.577374 -31.68  L 331.577374 -31.68  L 334.731514 -31.68  L 334.731514 -31.68  L 337.885654 -31.68  L 337.885654 -31.68  L 341.039794 -31.68  L 341.039794 -31.68  L 341.039794 -31.710438  L 341.039794 -31.710438  L 341.039794 -31.710438  L 337.885654 -31.710438  L 337.885654 -31.740875  L 334.731514 -31.740875  L 334.731514 -31.68  L 331.577374 -31.68  L 331.577374 -31.710438  L 328.423234 -31.710438  L 328.423234 -31.710438  L 325.269094 -31.710438  L 325.269094 -31.68  L 322.114954 -31.68  L 322.114954 -31.740875  L 318.960814 -31.740875  L 318.960814 -31.893064  L 315.806674 -31.893064  L 315.806674 -31.771313  L 312.652534 -31.771313  L 312.652534 -31.801751  L 309.498394 -31.801751  L 309.498394 -31.771313  L 306.344254 -31.771313  L 306.344254 -31.771313  L 303.190114 -31.771313  L 303.190114 -31.984376  L 300.035974 -31.984376  L 300.035974 -32.045252  L 296.881834 -32.045252  L 296.881834 -32.136565  L 293.727694 -32.136565  L 293.727694 -32.19744  L 290.573554 -32.19744  L 290.573554 -32.745318  L 287.419414 -32.745318  L 287.419414 -32.988819  L 284.265274 -32.988819  L 284.265274 -32.654005  L 281.111134 -32.654005  L 281.111134 -33.475821  L 277.956994 -33.475821  L 277.956994 -33.445384  L 274.802854 -33.445384  L 274.802854 -34.084574  L 271.648714 -34.084574  L 271.648714 -35.332518  L 268.494574 -35.332518  L 268.494574 -35.423831  L 265.340433 -35.423831  L 265.340433 -35.454268  L 262.186293 -35.454268  L 262.186293 -37.128339  L 259.032153 -37.128339  L 259.032153 -38.893722  L 255.878013 -38.893722  L 255.878013 -40.567793  L 252.723873 -40.567793  L 252.723873 -39.411162  L 249.569733 -39.411162  L 249.569733 -43.337619  L 246.415593 -43.337619  L 246.415593 -46.290071  L 243.261453 -46.290071  L 243.261453 -47.385826  L 240.107313 -47.385826  L 240.107313 -52.712414  L 236.953173 -52.712414  L 236.953173 -53.351605  L 233.799033 -53.351605  L 233.799033 -60.474014  L 230.644893 -60.474014  L 230.644893 -62.635087  L 227.490753 -62.635087  L 227.490753 -64.156969  L 224.336613 -64.156969  L 224.336613 -89.998532  L 221.182473 -89.998532  L 221.182473 -65.465788  L 218.028333 -65.465788  L 218.028333 -84.306692  L 214.874193 -84.306692  L 214.874193 -91.916104  L 211.720053 -91.916104  L 211.720053 -104.212913  L 208.565913 -104.212913  L 208.565913 -110.178692  L 205.411773 -110.178692  L 205.411773 -119.583925  L 202.257633 -119.583925  L 202.257633 -124.636574  L 199.103493 -124.636574  L 199.103493 -135.259313  L 195.949353 -135.259313  L 195.949353 -154.130654  L 192.795213 -154.130654  L 192.795213 -170.627859  L 189.641073 -170.627859  L 189.641073 -158.391925  L 186.486933 -158.391925  L 186.486933 -172.393242  L 183.332793 -172.393242  L 183.332793 -173.884687  L 180.178653 -173.884687  L 180.178653 -170.110419  L 177.024513 -170.110419  L 177.024513 -170.536546  L 173.870373 -170.536546  L 173.870373 -150.539012  L 170.716233 -150.539012  L 170.716233 -148.834504  L 167.562093 -148.834504  L 167.562093 -128.806532  L 164.407953 -128.806532  L 164.407953 -114.592151  L 161.253813 -114.592151  L 161.253813 -95.659934  L 158.099673 -95.659934  L 158.099673 -78.036536  L 154.945533 -78.036536  L 154.945533 -66.926795  L 151.791392 -66.926795  L 151.791392 -55.99968  L 148.637252 -55.99968  L 148.637252 -46.016132  L 145.483112 -46.016132  L 145.483112 -41.267859  L 142.328972 -41.267859  L 142.328972 -35.728207  L 139.174832 -35.728207  L 139.174832 -33.871511  L 136.020692 -33.871511  L 136.020692 -32.319191  L 132.866552 -32.319191  L 132.866552 -31.953939  L 129.712412 -31.953939  L 129.712412 -31.771313  L 126.558272 -31.771313  L 126.558272 -31.68  L 123.404132 -31.68  L 123.404132 -31.68  L 120.249992 -31.68  L 120.249992 -31.68  L 117.095852 -31.68  L 117.095852 -31.68  L 113.941712 -31.68  L 113.941712 -31.68  L 110.787572 -31.68  L 110.787572 -31.68  L 107.633432 -31.68  L 107.633432 -31.68  L 104.479292 -31.68  L 104.479292 -31.68  L 101.325152 -31.68  L 101.325152 -31.68  L 98.171012 -31.68  L 98.171012 -31.68  L 95.016872 -31.68  L 95.016872 -31.68  L 91.862732 -31.68  L 91.862732 -31.68  L 88.708592 -31.68  L 88.708592 -31.68  L 85.554452 -31.68  L 85.554452 -31.68  L 82.400312 -31.68  L 82.400312 -31.68  L 79.246172 -31.68  L 79.246172 -31.68  L 76.092032 -31.68  L 76.092032 -31.68  L 72.937892 -31.68  L 72.937892 -31.68  L 69.783752 -31.68  L 69.783752 -31.68  L 66.629612 -31.68  L 66.629612 -31.68  L 63.475472 -31.68  z "
             style="stroke: #2ca02c; stroke-width: 0.8" />
        </defs>
        <g
           clip-path="url(#p47a410507b)"
           id="g15">
          <use
             xlink:href="#m1c0f499a9c"
             x="0"
             y="288"
             style="fill: #2ca02c; fill-opacity: 0.25; stroke: #2ca02c; stroke-width: 0.8"
             id="use15" />
        </g>
      </g>
      <g
         id="FillBetweenPolyCollection_5">
        <path
           d="M 63.475472 -328.874202  L 63.475472 256.32  L 66.629612 256.32  L 66.629612 256.32  L 69.783752 256.32  L 69.783752 256.32  L 72.937892 256.32  L 72.937892 256.32  L 76.092032 256.32  L 76.092032 256.32  L 79.246172 256.32  L 79.246172 256.32  L 82.400312 256.32  L 82.400312 256.32  L 85.554452 256.32  L 85.554452 256.32  L 88.708592 256.32  L 88.708592 256.32  L 91.862732 256.32  L 91.862732 256.32  L 95.016872 256.32  L 95.016872 256.32  L 98.171012 256.32  L 98.171012 256.32  L 101.325152 256.32  L 101.325152 256.32  L 104.479292 256.32  L 104.479292 256.32  L 107.633432 256.32  L 107.633432 256.32  L 110.787572 256.32  L 110.787572 256.32  L 113.941712 256.32  L 113.941712 256.32  L 117.095852 256.32  L 117.095852 256.32  L 120.249992 256.32  L 120.249992 256.32  L 123.404132 256.32  L 123.404132 256.32  L 126.558272 256.32  L 126.558272 256.32  L 129.712412 256.32  L 129.712412 256.32  L 132.866552 256.32  L 132.866552 256.32  L 136.020692 256.32  L 136.020692 256.32  L 139.174832 256.32  L 139.174832 256.32  L 142.328972 256.32  L 142.328972 256.32  L 145.483112 256.32  L 145.483112 256.32  L 148.637252 256.32  L 148.637252 256.32  L 151.791392 256.32  L 151.791392 256.32  L 154.945533 256.32  L 154.945533 256.32  L 158.099673 256.32  L 158.099673 256.32  L 161.253813 256.32  L 161.253813 256.32  L 164.407953 256.32  L 164.407953 256.32  L 167.562093 256.32  L 167.562093 256.32  L 170.716233 256.32  L 170.716233 256.32  L 173.870373 256.32  L 173.870373 256.32  L 177.024513 256.32  L 177.024513 256.32  L 180.178653 256.32  L 180.178653 256.32  L 183.332793 256.32  L 183.332793 256.32  L 186.486933 256.32  L 186.486933 256.32  L 189.641073 256.32  L 189.641073 256.32  L 192.795213 256.32  L 192.795213 256.32  L 195.949353 256.32  L 195.949353 256.32  L 199.103493 256.32  L 199.103493 256.32  L 202.257633 256.32  L 202.257633 256.32  L 205.411773 256.32  L 205.411773 256.32  L 208.565913 256.32  L 208.565913 256.32  L 211.720053 256.32  L 211.720053 256.32  L 214.874193 256.32  L 214.874193 256.32  L 218.028333 256.32  L 218.028333 256.32  L 221.182473 256.32  L 221.182473 256.32  L 224.336613 256.32  L 224.336613 256.32  L 227.490753 256.32  L 227.490753 256.32  L 230.644893 256.32  L 230.644893 256.32  L 233.799033 256.32  L 233.799033 256.32  L 236.953173 256.32  L 236.953173 256.32  L 240.107313 256.32  L 240.107313 256.32  L 243.261453 256.32  L 243.261453 256.32  L 246.415593 256.32  L 246.415593 256.32  L 249.569733 256.32  L 249.569733 256.32  L 252.723873 256.32  L 252.723873 256.32  L 255.878013 256.32  L 255.878013 256.32  L 259.032153 256.32  L 259.032153 256.32  L 262.186293 256.32  L 262.186293 256.32  L 265.340433 256.32  L 265.340433 256.32  L 268.494574 256.32  L 268.494574 256.32  L 271.648714 256.32  L 271.648714 256.32  L 274.802854 256.32  L 274.802854 256.32  L 277.956994 256.32  L 277.956994 256.32  L 281.111134 256.32  L 281.111134 256.32  L 284.265274 256.32  L 284.265274 256.32  L 287.419414 256.32  L 287.419414 256.32  L 290.573554 256.32  L 290.573554 256.32  L 293.727694 256.32  L 293.727694 256.32  L 296.881834 256.32  L 296.881834 256.32  L 300.035974 256.32  L 300.035974 256.32  L 303.190114 256.32  L 303.190114 256.32  L 306.344254 256.32  L 306.344254 256.32  L 309.498394 256.32  L 309.498394 256.32  L 312.652534 256.32  L 312.652534 256.32  L 315.806674 256.32  L 315.806674 256.32  L 318.960814 256.32  L 318.960814 256.32  L 322.114954 256.32  L 322.114954 256.32  L 325.269094 256.32  L 325.269094 256.32  L 328.423234 256.32  L 328.423234 256.32  L 331.577374 256.32  L 331.577374 256.32  L 334.731514 256.32  L 334.731514 256.32  L 337.885654 256.32  L 337.885654 256.32  L 341.039794 256.32  L 341.039794 256.32  L 341.039794 256.32  L 341.039794 256.32  L 341.039794 256.32  L 337.885654 256.32  L 337.885654 256.32  L 334.731514 256.32  L 334.731514 256.32  L 331.577374 256.32  L 331.577374 256.32  L 328.423234 256.32  L 328.423234 256.32  L 325.269094 256.32  L 325.269094 256.32  L 322.114954 256.32  L 322.114954 256.32  L 318.960814 256.32  L 318.960814 256.32  L 315.806674 256.32  L 315.806674 256.32  L 312.652534 256.32  L 312.652534 256.32  L 309.498394 256.32  L 309.498394 256.32  L 306.344254 256.32  L 306.344254 256.32  L 303.190114 256.32  L 303.190114 256.32  L 300.035974 256.32  L 300.035974 256.32  L 296.881834 256.32  L 296.881834 256.32  L 293.727694 256.32  L 293.727694 256.32  L 290.573554 256.32  L 290.573554 256.32  L 287.419414 256.32  L 287.419414 256.259125  L 284.265274 256.259125  L 284.265274 256.289562  L 281.111134 256.289562  L 281.111134 256.228687  L 277.956994 256.228687  L 277.956994 256.076499  L 274.802854 256.076499  L 274.802854 255.985186  L 271.648714 255.985186  L 271.648714 255.893873  L 268.494574 255.893873  L 268.494574 255.863435  L 265.340433 255.863435  L 265.340433 255.224245  L 262.186293 255.224245  L 262.186293 254.858993  L 259.032153 254.858993  L 259.032153 254.554616  L 255.878013 254.554616  L 255.878013 253.854551  L 252.723873 253.854551  L 252.723873 254.25024  L 249.569733 254.25024  L 249.569733 253.276235  L 246.415593 253.276235  L 246.415593 253.002296  L 243.261453 253.002296  L 243.261453 252.454419  L 240.107313 252.454419  L 240.107313 249.745468  L 236.953173 249.745468  L 236.953173 249.471529  L 233.799033 249.471529  L 233.799033 249.106278  L 230.644893 249.106278  L 230.644893 248.345336  L 227.490753 248.345336  L 227.490753 247.675708  L 224.336613 247.675708  L 224.336613 240.735925  L 221.182473 240.735925  L 221.182473 246.884329  L 218.028333 246.884329  L 218.028333 241.862118  L 214.874193 241.862118  L 214.874193 241.527304  L 211.720053 241.527304  L 211.720053 238.026974  L 208.565913 238.026974  L 208.565913 238.848791  L 205.411773 238.848791  L 205.411773 237.631285  L 202.257633 237.631285  L 202.257633 234.648395  L 199.103493 234.648395  L 199.103493 234.435332  L 195.949353 234.435332  L 195.949353 231.361129  L 192.795213 231.361129  L 192.795213 229.747934  L 189.641073 229.747934  L 189.641073 232.822136  L 186.486933 232.822136  L 186.486933 229.808809  L 183.332793 229.808809  L 183.332793 228.195614  L 180.178653 228.195614  L 180.178653 224.908348  L 177.024513 224.908348  L 177.024513 224.330033  L 173.870373 224.330033  L 173.870373 225.030099  L 170.716233 225.030099  L 170.716233 219.947012  L 167.562093 219.947012  L 167.562093 215.655304  L 164.407953 215.655304  L 164.407953 212.3376  L 161.253813 212.3376  L 161.253813 212.520226  L 158.099673 212.520226  L 158.099673 211.576659  L 154.945533 211.576659  L 154.945533 211.485346  L 151.791392 211.485346  L 151.791392 205.823944  L 148.637252 205.823944  L 148.637252 202.597553  L 145.483112 202.597553  L 145.483112 194.196762  L 142.328972 194.196762  L 142.328972 208.867708  L 139.174832 208.867708  L 139.174832 195.170767  L 136.020692 195.170767  L 136.020692 196.905713  L 132.866552 196.905713  L 132.866552 193.374946  L 129.712412 193.374946  L 129.712412 185.704659  L 126.558272 185.704659  L 126.558272 200.832169  L 123.404132 200.832169  L 123.404132 193.618447  L 120.249992 193.618447  L 120.249992 194.409826  L 117.095852 194.409826  L 117.095852 198.975473  L 113.941712 198.975473  L 113.941712 199.766852  L 110.787572 199.766852  L 110.787572 203.419369  L 107.633432 203.419369  L 107.633432 204.819501  L 104.479292 204.819501  L 104.479292 209.902588  L 101.325152 209.902588  L 101.325152 217.481562  L 98.171012 217.481562  L 98.171012 225.760602  L 95.016872 225.760602  L 95.016872 229.534871  L 91.862732 229.534871  L 91.862732 233.004762  L 88.708592 233.004762  L 88.708592 237.235595  L 85.554452 237.235595  L 85.554452 238.240038  L 82.400312 238.240038  L 82.400312 238.300913  L 79.246172 238.300913  L 79.246172 234.283144  L 76.092032 234.283144  L 76.092032 227.8608  L 72.937892 227.8608  L 72.937892 233.430889  L 69.783752 233.430889  L 69.783752 256.32  L 66.629612 256.32  L 66.629612 -328.874202  L 63.475472 -328.874202  z "
           clip-path="url(#p47a410507b)"
           style="fill: #ff7f0e; fill-opacity: 0.25; stroke: #ff7f0e; stroke-width: 0.8"
           id="path16" />
      </g>
      <g
         id="FillBetweenPolyCollection_6">
        <defs
           id="defs16">
          <path
             id="mf8ebb13891"
             d="M 63.475472 -93.833675  L 63.475472 -31.68  L 66.629612 -31.68  L 66.629612 -31.68  L 69.783752 -31.68  L 69.783752 -31.68  L 72.937892 -31.68  L 72.937892 -31.68  L 76.092032 -31.68  L 76.092032 -31.68  L 79.246172 -31.68  L 79.246172 -31.68  L 82.400312 -31.68  L 82.400312 -31.68  L 85.554452 -31.68  L 85.554452 -31.68  L 88.708592 -31.68  L 88.708592 -31.68  L 91.862732 -31.68  L 91.862732 -31.68  L 95.016872 -31.68  L 95.016872 -31.68  L 98.171012 -31.68  L 98.171012 -31.68  L 101.325152 -31.68  L 101.325152 -31.68  L 104.479292 -31.68  L 104.479292 -31.68  L 107.633432 -31.68  L 107.633432 -31.68  L 110.787572 -31.68  L 110.787572 -31.68  L 113.941712 -31.68  L 113.941712 -31.68  L 117.095852 -31.68  L 117.095852 -31.68  L 120.249992 -31.68  L 120.249992 -31.68  L 123.404132 -31.68  L 123.404132 -31.68  L 126.558272 -31.68  L 126.558272 -31.68  L 129.712412 -31.68  L 129.712412 -31.68  L 132.866552 -31.68  L 132.866552 -31.68  L 136.020692 -31.68  L 136.020692 -31.68  L 139.174832 -31.68  L 139.174832 -31.68  L 142.328972 -31.68  L 142.328972 -31.68  L 145.483112 -31.68  L 145.483112 -31.68  L 148.637252 -31.68  L 148.637252 -31.68  L 151.791392 -31.68  L 151.791392 -31.68  L 154.945533 -31.68  L 154.945533 -31.68  L 158.099673 -31.68  L 158.099673 -31.68  L 161.253813 -31.68  L 161.253813 -31.68  L 164.407953 -31.68  L 164.407953 -31.68  L 167.562093 -31.68  L 167.562093 -31.68  L 170.716233 -31.68  L 170.716233 -31.68  L 173.870373 -31.68  L 173.870373 -31.68  L 177.024513 -31.68  L 177.024513 -31.68  L 180.178653 -31.68  L 180.178653 -31.68  L 183.332793 -31.68  L 183.332793 -31.68  L 186.486933 -31.68  L 186.486933 -31.68  L 189.641073 -31.68  L 189.641073 -31.68  L 192.795213 -31.68  L 192.795213 -31.68  L 195.949353 -31.68  L 195.949353 -31.68  L 199.103493 -31.68  L 199.103493 -31.68  L 202.257633 -31.68  L 202.257633 -31.68  L 205.411773 -31.68  L 205.411773 -31.68  L 208.565913 -31.68  L 208.565913 -31.68  L 211.720053 -31.68  L 211.720053 -31.68  L 214.874193 -31.68  L 214.874193 -31.68  L 218.028333 -31.68  L 218.028333 -31.68  L 221.182473 -31.68  L 221.182473 -31.68  L 224.336613 -31.68  L 224.336613 -31.68  L 227.490753 -31.68  L 227.490753 -31.68  L 230.644893 -31.68  L 230.644893 -31.68  L 233.799033 -31.68  L 233.799033 -31.68  L 236.953173 -31.68  L 236.953173 -31.68  L 240.107313 -31.68  L 240.107313 -31.68  L 243.261453 -31.68  L 243.261453 -31.68  L 246.415593 -31.68  L 246.415593 -31.68  L 249.569733 -31.68  L 249.569733 -31.68  L 252.723873 -31.68  L 252.723873 -31.68  L 255.878013 -31.68  L 255.878013 -31.68  L 259.032153 -31.68  L 259.032153 -31.68  L 262.186293 -31.68  L 262.186293 -31.68  L 265.340433 -31.68  L 265.340433 -31.68  L 268.494574 -31.68  L 268.494574 -31.68  L 271.648714 -31.68  L 271.648714 -31.68  L 274.802854 -31.68  L 274.802854 -31.68  L 277.956994 -31.68  L 277.956994 -31.68  L 281.111134 -31.68  L 281.111134 -31.68  L 284.265274 -31.68  L 284.265274 -31.68  L 287.419414 -31.68  L 287.419414 -31.68  L 290.573554 -31.68  L 290.573554 -31.68  L 293.727694 -31.68  L 293.727694 -31.68  L 296.881834 -31.68  L 296.881834 -31.68  L 300.035974 -31.68  L 300.035974 -31.68  L 303.190114 -31.68  L 303.190114 -31.68  L 306.344254 -31.68  L 306.344254 -31.68  L 309.498394 -31.68  L 309.498394 -31.68  L 312.652534 -31.68  L 312.652534 -31.68  L 315.806674 -31.68  L 315.806674 -31.68  L 318.960814 -31.68  L 318.960814 -31.68  L 322.114954 -31.68  L 322.114954 -31.68  L 325.269094 -31.68  L 325.269094 -31.68  L 328.423234 -31.68  L 328.423234 -31.68  L 331.577374 -31.68  L 331.577374 -31.68  L 334.731514 -31.68  L 334.731514 -31.68  L 337.885654 -31.68  L 337.885654 -31.68  L 341.039794 -31.68  L 341.039794 -31.68  L 341.039794 -31.68  L 341.039794 -31.68  L 341.039794 -31.68  L 337.885654 -31.68  L 337.885654 -31.68  L 334.731514 -31.68  L 334.731514 -31.68  L 331.577374 -31.68  L 331.577374 -31.68  L 328.423234 -31.68  L 328.423234 -31.68  L 325.269094 -31.68  L 325.269094 -31.68  L 322.114954 -31.68  L 322.114954 -31.68  L 318.960814 -31.68  L 318.960814 -31.68  L 315.806674 -31.68  L 315.806674 -31.68  L 312.652534 -31.68  L 312.652534 -31.68  L 309.498394 -31.68  L 309.498394 -31.68  L 306.344254 -31.68  L 306.344254 -31.832188  L 303.190114 -31.832188  L 303.190114 -31.984376  L 300.035974 -31.984376  L 300.035974 -32.045252  L 296.881834 -32.045252  L 296.881834 -32.623567  L 293.727694 -32.623567  L 293.727694 -33.567134  L 290.573554 -33.567134  L 290.573554 -34.571576  L 287.419414 -34.571576  L 287.419414 -36.915275  L 284.265274 -36.915275  L 284.265274 -39.4416  L 281.111134 -39.4416  L 281.111134 -43.06368  L 277.956994 -43.06368  L 277.956994 -48.025016  L 274.802854 -48.025016  L 274.802854 -49.486024  L 271.648714 -49.486024  L 271.648714 -55.48224  L 268.494574 -55.48224  L 268.494574 -60.717515  L 265.340433 -60.717515  L 265.340433 -62.939464  L 262.186293 -62.939464  L 262.186293 -64.826598  L 259.032153 -64.826598  L 259.032153 -67.992113  L 255.878013 -67.992113  L 255.878013 -72.649073  L 252.723873 -72.649073  L 252.723873 -70.031435  L 249.569733 -70.031435  L 249.569733 -74.505769  L 246.415593 -74.505769  L 246.415593 -74.992772  L 243.261453 -74.992772  L 243.261453 -76.879906  L 240.107313 -76.879906  L 240.107313 -78.76704  L 236.953173 -78.76704  L 236.953173 -77.458221  L 233.799033 -77.458221  L 233.799033 -83.576188  L 230.644893 -83.576188  L 230.644893 -81.658616  L 227.490753 -81.658616  L 227.490753 -84.215379  L 224.336613 -84.215379  L 224.336613 -98.308009  L 221.182473 -98.308009  L 221.182473 -75.236273  L 218.028333 -75.236273  L 218.028333 -89.085402  L 214.874193 -89.085402  L 214.874193 -87.106955  L 211.720053 -87.106955  L 211.720053 -91.002974  L 208.565913 -91.002974  L 208.565913 -89.11584  L 205.411773 -89.11584  L 205.411773 -88.172273  L 202.257633 -88.172273  L 202.257633 -90.272471  L 199.103493 -90.272471  L 199.103493 -86.924329  L 195.949353 -86.924329  L 195.949353 -92.616169  L 192.795213 -92.616169  L 192.795213 -91.855228  L 189.641073 -91.855228  L 189.641073 -84.580631  L 186.486933 -84.580631  L 186.486933 -86.498202  L 183.332793 -86.498202  L 183.332793 -90.546409  L 180.178653 -90.546409  L 180.178653 -88.020085  L 177.024513 -88.020085  L 177.024513 -84.793694  L 173.870373 -84.793694  L 173.870373 -85.006758  L 170.716233 -85.006758  L 170.716233 -84.885007  L 167.562093 -84.885007  L 167.562093 -83.697939  L 164.407953 -83.697939  L 164.407953 -85.098071  L 161.253813 -85.098071  L 161.253813 -82.419558  L 158.099673 -82.419558  L 158.099673 -74.810146  L 154.945533 -74.810146  L 154.945533 -72.222946  L 151.791392 -72.222946  L 151.791392 -72.679511  L 148.637252 -72.679511  L 148.637252 -72.283821  L 145.483112 -72.283821  L 145.483112 -71.705506  L 142.328972 -71.705506  L 142.328972 -58.830381  L 139.174832 -58.830381  L 139.174832 -63.487341  L 136.020692 -63.487341  L 136.020692 -62.939464  L 132.866552 -62.939464  L 132.866552 -59.439134  L 129.712412 -59.439134  L 129.712412 -61.356706  L 126.558272 -61.356706  L 126.558272 -57.552  L 123.404132 -57.552  L 123.404132 -55.177864  L 120.249992 -55.177864  L 120.249992 -52.134099  L 117.095852 -52.134099  L 117.095852 -52.468913  L 113.941712 -52.468913  L 113.941712 -50.368715  L 110.787572 -50.368715  L 110.787572 -43.124555  L 107.633432 -43.124555  L 107.633432 -43.550682  L 104.479292 -43.550682  L 104.479292 -41.480922  L 101.325152 -41.480922  L 101.325152 -37.432715  L 98.171012 -37.432715  L 98.171012 -36.8544  L 95.016872 -36.8544  L 95.016872 -36.154334  L 91.862732 -36.154334  L 91.862732 -35.271642  L 88.708592 -35.271642  L 88.708592 -33.293195  L 85.554452 -33.293195  L 85.554452 -34.2672  L 82.400312 -34.2672  L 82.400312 -34.723765  L 79.246172 -34.723765  L 79.246172 -31.862626  L 76.092032 -31.862626  L 76.092032 -33.74976  L 72.937892 -33.74976  L 72.937892 -34.145449  L 69.783752 -34.145449  L 69.783752 -31.68  L 66.629612 -31.68  L 66.629612 -93.833675  L 63.475472 -93.833675  z "
             style="stroke: #1f77b4; stroke-width: 0.8" />
        </defs>
        <g
           clip-path="url(#p47a410507b)"
           id="g16">
          <use
             xlink:href="#mf8ebb13891"
             x="0"
             y="288"
             style="fill: #1f77b4; fill-opacity: 0.25; stroke: #1f77b4; stroke-width: 0.8"
             id="use16" />
        </g>
      </g>
      <g
         id="matplotlib.axis_3">
        <g
           id="xtick_1">
          <g
             id="line2d_4">
            <defs
               id="defs17">
              <path
                 id="m56fab8732d"
                 d="M 0 0  L 0 4.8  "
                 style="stroke: #000000" />
            </defs>
            <g
               id="g17">
              <use
                 xlink:href="#m56fab8732d"
                 x="63.475472"
                 y="256.32"
                 style="stroke: #000000"
                 id="use17" />
            </g>
          </g>
          <g
             id="text_7">
            <text
               style="font-size: 8.8px; font-family: 'DejaVu Sans', 'Bitstream Vera Sans', 'Computer Modern Sans Serif', 'Lucida Grande', 'Verdana', 'Geneva', 'Lucid', 'Arial', 'Helvetica', 'Avant Garde', sans-serif; text-anchor: middle"
               x="63.475472"
               y="271.306625"
               transform="rotate(-0 63.475472 271.306625)"
               id="text17">0</text>
          </g>
        </g>
        <g
           id="xtick_2">
          <g
             id="line2d_5">
            <g
               id="g18">
              <use
                 xlink:href="#m56fab8732d"
                 x="126.645283"
                 y="256.32"
                 style="stroke: #000000"
                 id="use18" />
            </g>
          </g>
          <g
             id="text_8">
            <text
               style="font-size: 8.8px; font-family: 'DejaVu Sans', 'Bitstream Vera Sans', 'Computer Modern Sans Serif', 'Lucida Grande', 'Verdana', 'Geneva', 'Lucid', 'Arial', 'Helvetica', 'Avant Garde', sans-serif; text-anchor: middle"
               x="126.645283"
               y="271.306625"
               transform="rotate(-0 126.645283 271.306625)"
               id="text18">20</text>
          </g>
        </g>
        <g
           id="xtick_3">
          <g
             id="line2d_6">
            <g
               id="g19">
              <use
                 xlink:href="#m56fab8732d"
                 x="189.815094"
                 y="256.32"
                 style="stroke: #000000"
                 id="use19" />
            </g>
          </g>
          <g
             id="text_9">
            <text
               style="font-size: 8.8px; font-family: 'DejaVu Sans', 'Bitstream Vera Sans', 'Computer Modern Sans Serif', 'Lucida Grande', 'Verdana', 'Geneva', 'Lucid', 'Arial', 'Helvetica', 'Avant Garde', sans-serif; text-anchor: middle"
               x="189.815094"
               y="271.306625"
               transform="rotate(-0 189.815094 271.306625)"
               id="text19">40</text>
          </g>
        </g>
        <g
           id="xtick_4">
          <g
             id="line2d_7">
            <g
               id="g20">
              <use
                 xlink:href="#m56fab8732d"
                 x="252.984906"
                 y="256.32"
                 style="stroke: #000000"
                 id="use20" />
            </g>
          </g>
          <g
             id="text_10">
            <text
               style="font-size: 8.8px; font-family: 'DejaVu Sans', 'Bitstream Vera Sans', 'Computer Modern Sans Serif', 'Lucida Grande', 'Verdana', 'Geneva', 'Lucid', 'Arial', 'Helvetica', 'Avant Garde', sans-serif; text-anchor: middle"
               x="252.984906"
               y="271.306625"
               transform="rotate(-0 252.984906 271.306625)"
               id="text20">60</text>
          </g>
        </g>
        <g
           id="xtick_5">
          <g
             id="line2d_8">
            <g
               id="g21">
              <use
                 xlink:href="#m56fab8732d"
                 x="316.154717"
                 y="256.32"
                 style="stroke: #000000"
                 id="use21" />
            </g>
          </g>
          <g
             id="text_11">
            <text
               style="font-size: 8.8px; font-family: 'DejaVu Sans', 'Bitstream Vera Sans', 'Computer Modern Sans Serif', 'Lucida Grande', 'Verdana', 'Geneva', 'Lucid', 'Arial', 'Helvetica', 'Avant Garde', sans-serif; text-anchor: middle"
               x="316.154717"
               y="271.306625"
               transform="rotate(-0 316.154717 271.306625)"
               id="text21">80</text>
          </g>
        </g>
        <g
           id="xtick_6">
          <g
             id="line2d_9">
            <g
               id="g22">
              <use
                 xlink:href="#m56fab8732d"
                 x="379.324528"
                 y="256.32"
                 style="stroke: #000000"
                 id="use22" />
            </g>
          </g>
          <g
             id="text_12">
            <text
               style="font-size: 8.8px; font-family: 'DejaVu Sans', 'Bitstream Vera Sans', 'Computer Modern Sans Serif', 'Lucida Grande', 'Verdana', 'Geneva', 'Lucid', 'Arial', 'Helvetica', 'Avant Garde', sans-serif; text-anchor: middle"
               x="379.324528"
               y="271.306625"
               transform="rotate(-0 379.324528 271.306625)"
               id="text22">100</text>
          </g>
        </g>
        <g
           id="text_13">
          <text
             style="font-size: 9.6px; font-family: 'DejaVu Sans', 'Bitstream Vera Sans', 'Computer Modern Sans Serif', 'Lucida Grande', 'Verdana', 'Geneva', 'Lucid', 'Arial', 'Helvetica', 'Avant Garde', sans-serif; text-anchor: middle"
             x="221.4"
             y="284.43125"
             transform="rotate(-0 221.4 284.43125)"
             id="text23">Percentage of residues</text>
        </g>
      </g>
      <g
         id="matplotlib.axis_4">
        <g
           id="ytick_3">
          <g
             id="line2d_10">
            <g
               id="g23">
              <use
                 xlink:href="#m44ef3679c3"
                 x="54"
                 y="256.32"
                 style="stroke: #000000"
                 id="use23" />
            </g>
          </g>
          <g
             id="text_14">
            <text
               style="font-size: 8.8px; font-family: 'DejaVu Sans', 'Bitstream Vera Sans', 'Computer Modern Sans Serif', 'Lucida Grande', 'Verdana', 'Geneva', 'Lucid', 'Arial', 'Helvetica', 'Avant Garde', sans-serif; text-anchor: end"
               x="45.7"
               y="259.663312"
               transform="rotate(-0 45.7 259.663312)"
               id="text24">0</text>
          </g>
        </g>
        <g
           id="ytick_4">
          <g
             id="line2d_11">
            <g
               id="g24">
              <use
                 xlink:href="#m44ef3679c3"
                 x="54"
                 y="225.882353"
                 style="stroke: #000000"
                 id="use24" />
            </g>
          </g>
          <g
             id="text_15">
            <text
               style="font-size: 8.8px; font-family: 'DejaVu Sans', 'Bitstream Vera Sans', 'Computer Modern Sans Serif', 'Lucida Grande', 'Verdana', 'Geneva', 'Lucid', 'Arial', 'Helvetica', 'Avant Garde', sans-serif; text-anchor: end"
               x="45.7"
               y="229.225665"
               transform="rotate(-0 45.7 229.225665)"
               id="text25">1000</text>
          </g>
        </g>
        <g
           id="ytick_5">
          <g
             id="line2d_12">
            <g
               id="g25">
              <use
                 xlink:href="#m44ef3679c3"
                 x="54"
                 y="195.444706"
                 style="stroke: #000000"
                 id="use25" />
            </g>
          </g>
          <g
             id="text_16">
            <text
               style="font-size: 8.8px; font-family: 'DejaVu Sans', 'Bitstream Vera Sans', 'Computer Modern Sans Serif', 'Lucida Grande', 'Verdana', 'Geneva', 'Lucid', 'Arial', 'Helvetica', 'Avant Garde', sans-serif; text-anchor: end"
               x="45.7"
               y="198.788018"
               transform="rotate(-0 45.7 198.788018)"
               id="text26">2000</text>
          </g>
        </g>
        <g
           id="ytick_6">
          <g
             id="line2d_13">
            <g
               id="g26">
              <use
                 xlink:href="#m44ef3679c3"
                 x="54"
                 y="165.007059"
                 style="stroke: #000000"
                 id="use26" />
            </g>
          </g>
          <g
             id="text_17">
            <text
               style="font-size: 8.8px; font-family: 'DejaVu Sans', 'Bitstream Vera Sans', 'Computer Modern Sans Serif', 'Lucida Grande', 'Verdana', 'Geneva', 'Lucid', 'Arial', 'Helvetica', 'Avant Garde', sans-serif; text-anchor: end"
               x="45.7"
               y="168.350371"
               transform="rotate(-0 45.7 168.350371)"
               id="text27">3000</text>
          </g>
        </g>
        <g
           id="ytick_7">
          <g
             id="line2d_14">
            <g
               id="g27">
              <use
                 xlink:href="#m44ef3679c3"
                 x="54"
                 y="134.569412"
                 style="stroke: #000000"
                 id="use27" />
            </g>
          </g>
          <g
             id="text_18">
            <text
               style="font-size: 8.8px; font-family: 'DejaVu Sans', 'Bitstream Vera Sans', 'Computer Modern Sans Serif', 'Lucida Grande', 'Verdana', 'Geneva', 'Lucid', 'Arial', 'Helvetica', 'Avant Garde', sans-serif; text-anchor: end"
               x="45.7"
               y="137.912724"
               transform="rotate(-0 45.7 137.912724)"
               id="text28">4000</text>
          </g>
        </g>
        <g
           id="ytick_8">
          <g
             id="line2d_15">
            <g
               id="g28">
              <use
                 xlink:href="#m44ef3679c3"
                 x="54"
                 y="104.131765"
                 style="stroke: #000000"
                 id="use28" />
            </g>
          </g>
          <g
             id="text_19">
            <text
               style="font-size: 8.8px; font-family: 'DejaVu Sans', 'Bitstream Vera Sans', 'Computer Modern Sans Serif', 'Lucida Grande', 'Verdana', 'Geneva', 'Lucid', 'Arial', 'Helvetica', 'Avant Garde', sans-serif; text-anchor: end"
               x="45.7"
               y="107.475077"
               transform="rotate(-0 45.7 107.475077)"
               id="text29">5000</text>
          </g>
        </g>
        <g
           id="text_20">
          <text
             style="font-size: 9.6px; font-family: 'DejaVu Sans', 'Bitstream Vera Sans', 'Computer Modern Sans Serif', 'Lucida Grande', 'Verdana', 'Geneva', 'Lucid', 'Arial', 'Helvetica', 'Avant Garde', sans-serif; text-anchor: middle"
             x="10.9635"
             y="144"
             transform="rotate(-90 10.9635 144)"
             id="text30">Number of backbone structures</text>
        </g>
      </g>
      <g
         id="line2d_16">
        <g
           id="g31">
          <use
             xlink:href="#m798122efbc"
             x="54"
             y="104.131765"
             style="stroke: #000000"
             id="use30" />
          <use
             xlink:href="#m798122efbc"
             x="388.8"
             y="104.131765"
             style="stroke: #000000"
             id="use31" />
        </g>
      </g>
      <g
         id="patch_11">
        <path
           d="M 54 256.32  L 54 104.131765  "
           style="fill: none; stroke: #000000; stroke-linejoin: miter; stroke-linecap: square"
           id="path31" />
      </g>
      <g
         id="patch_12">
        <path
           d="M 388.8 256.32  L 388.8 104.131765  "
           style="fill: none; stroke: #000000; stroke-linejoin: miter; stroke-linecap: square"
           id="path32" />
      </g>
      <g
         id="patch_13">
        <path
           d="M 54 256.32  L 388.8 256.32  "
           style="fill: none; stroke: #000000; stroke-linejoin: miter; stroke-linecap: square"
           id="path33" />
      </g>
    </g>
  </g>
  <defs
     id="defs34">
    <clipPath
       id="p2bcf34e722">
      <rect
         x="54"
         y="34.56"
         width="334.8"
         height="65.223529"
         id="rect33" />
    </clipPath>
    <clipPath
       id="p47a410507b">
      <rect
         x="54"
         y="104.131765"
         width="334.8"
         height="152.188235"
         id="rect34" />
    </clipPath>
  </defs>
</svg>
